<svg width="60" height="60" viewBox="0 0 60 60" fill="none" xmlns="http://www.w3.org/2000/svg">
<circle cx="30" cy="30" r="30" fill="#74B0FF" fill-opacity="0.5"/>
<path d="M33.6585 22.3539C34.7231 22.357 35.7431 22.7655 36.4958 23.4904C37.2486 24.2153 37.6729 25.1975 37.6761 26.2226V33.9593C37.6729 34.9844 37.2486 35.9667 36.4958 36.6915C35.7431 37.4164 34.7231 37.825 33.6585 37.828H25.6243C24.5598 37.825 23.5397 37.4164 22.787 36.6915C22.0342 35.9667 21.6099 34.9844 21.6068 33.9593V26.2226C21.6099 25.1975 22.0342 24.2153 22.787 23.4904C23.5397 22.7655 24.5598 22.357 25.6243 22.3539H33.6585ZM33.6585 20.8066H25.6243C22.5309 20.8066 20 23.2438 20 26.2226V33.9593C20 36.9382 22.5309 39.3753 25.6243 39.3753H33.6585C36.752 39.3753 39.2828 36.9382 39.2828 33.9593V26.2226C39.2828 23.2438 36.752 20.8066 33.6585 20.8066Z" fill="white"/>
<path d="M34.8633 26.2229C34.6249 26.2229 34.3919 26.1549 34.1937 26.0274C33.9956 25.8998 33.8411 25.7186 33.7499 25.5065C33.6587 25.2945 33.6348 25.0611 33.6813 24.836C33.7278 24.6109 33.8426 24.4041 34.0111 24.2418C34.1797 24.0795 34.3944 23.9689 34.6282 23.9242C34.862 23.8794 35.1043 23.9024 35.3245 23.9902C35.5447 24.078 35.7329 24.2268 35.8654 24.4176C35.9978 24.6085 36.0685 24.8329 36.0685 25.0624C36.0688 25.2149 36.0379 25.366 35.9774 25.5069C35.917 25.6479 35.8282 25.7759 35.7163 25.8838C35.6043 25.9916 35.4713 26.0771 35.3249 26.1353C35.1785 26.1935 35.0217 26.2233 34.8633 26.2229ZM29.641 26.9964C30.2767 26.9964 30.8981 27.1779 31.4266 27.5179C31.9551 27.858 32.3671 28.3414 32.6103 28.9069C32.8536 29.4724 32.9172 30.0947 32.7932 30.6951C32.6692 31.2954 32.3631 31.8469 31.9136 32.2797C31.4641 32.7125 30.8915 33.0073 30.268 33.1267C29.6446 33.2461 28.9984 33.1848 28.4111 32.9506C27.8238 32.7163 27.3219 32.3197 26.9687 31.8107C26.6156 31.3018 26.4271 30.7034 26.4271 30.0913C26.428 29.2707 26.7669 28.484 27.3694 27.9038C27.972 27.3236 28.7889 26.9972 29.641 26.9964ZM29.641 25.4491C28.6876 25.4491 27.7555 25.7214 26.9628 26.2315C26.17 26.7415 25.5521 27.4665 25.1873 28.3148C24.8224 29.163 24.7269 30.0964 24.9129 30.9969C25.099 31.8974 25.5581 32.7246 26.2323 33.3738C26.9065 34.023 27.7654 34.4651 28.7005 34.6442C29.6357 34.8234 30.605 34.7314 31.4858 34.3801C32.3667 34.0287 33.1196 33.4337 33.6493 32.6703C34.179 31.9069 34.4617 31.0094 34.4617 30.0913C34.4617 28.8601 33.9538 27.6793 33.0498 26.8088C32.1457 25.9382 30.9196 25.4491 29.641 25.4491Z" fill="white"/>
</svg>
