<svg width="60" height="60" viewBox="0 0 60 60" fill="none" xmlns="http://www.w3.org/2000/svg">
<circle cx="30" cy="30" r="30" fill="#74B0FF" fill-opacity="0.5"/>
<path d="M41.692 36.0053C40.8836 35.1909 38.9258 34.0023 37.9759 33.5233C36.7388 32.9003 36.637 32.8494 35.6647 33.5717C35.0162 34.0537 34.585 34.4844 33.826 34.3225C33.067 34.1606 31.4176 33.2479 29.9734 31.8084C28.5292 30.3689 27.5635 28.6718 27.4011 27.9154C27.2387 27.1589 27.6765 26.7329 28.154 26.0829C28.827 25.1666 28.7761 25.0139 28.2008 23.777C27.7524 22.8149 26.5291 20.8755 25.7115 20.0712C24.837 19.2074 24.837 19.3601 24.2734 19.5943C23.8146 19.7873 23.3745 20.0219 22.9585 20.2952C22.144 20.8363 21.692 21.2858 21.3758 21.9613C21.0597 22.6367 20.9177 24.2203 22.5503 27.1859C24.1828 30.1515 25.3282 31.6679 27.6989 34.0318C30.0696 36.3958 31.8926 37.6668 34.5575 39.1613C37.8542 41.0076 39.1187 40.6477 39.7963 40.3321C40.4738 40.0165 40.9254 39.5685 41.4675 38.7541C41.7415 38.3388 41.9767 37.8992 42.17 37.4408C42.4047 36.8793 42.5574 36.8793 41.692 36.0053Z" stroke="white" stroke-width="2" stroke-miterlimit="10"/>
</svg>
