<svg width="60" height="60" viewBox="0 0 60 60" fill="none" xmlns="http://www.w3.org/2000/svg">
<rect width="60" height="60" rx="30" fill="#74B0FF" fill-opacity="0.5"/>
<path d="M24.1451 25.8923C25.1091 25.8923 25.8803 25.109 25.8803 24.1571C25.8803 23.2051 25.0971 22.4219 24.1451 22.4219C23.1932 22.4219 22.4099 23.2051 22.4099 24.1571C22.4099 25.109 23.1932 25.8923 24.1451 25.8923ZM27.5312 27.2057V36.8698H30.5196V32.098C30.5196 30.8328 30.7606 29.6157 32.315 29.6157C33.8695 29.6157 33.8695 31.0617 33.8695 32.1703V36.8698H36.8699V31.5678C36.8699 28.965 36.3156 26.9647 33.279 26.9647C31.821 26.9647 30.8449 27.76 30.4473 28.5192H30.4111V27.1937H27.5432L27.5312 27.2057ZM22.6509 27.2057H25.6514V36.8698H22.6509V27.2057Z" fill="white"/>
</svg>
